<?xml version="1.0" encoding="UTF-8" ?>
<!DOCTYPE svg PUBLIC "-//W3C//DTD SVG 1.1//EN" "http://www.w3.org/Graphics/SVG/1.1/DTD/svg11.dtd">
<svg width="109pt" height="109pt" viewBox="0 0 109 109" version="1.1" xmlns="http://www.w3.org/2000/svg">
<path fill="#757dbe" stroke="#757dbe" stroke-width="0.09375" opacity="1.00" d=" M 19.6 5.5 C 21.7 2.5 25.6 1.9 29.0 1.7 C 33.2 1.3 38.4 2.4 40.2 6.7 C 41.5 14.9 41.3 23.4 41.3 31.7 C 44.3 31.7 47.4 31.3 50.3 30.5 C 51.7 22.9 52.3 15.1 53.7 7.5 C 59.3 3.0 66.9 0.8 74.1 1.9 C 79.9 2.3 85.1 6.6 87.0 12.1 C 88.9 17.5 89.5 23.3 89.9 29.1 C 88.9 27.5 87.5 26.2 85.9 25.3 C 85.1 18.7 84.4 10.6 77.8 7.2 C 71.5 4.4 63.2 5.4 57.8 9.8 C 55.8 17.7 55.8 26.0 53.7 33.9 C 53.5 34.9 53.2 36.0 52.9 37.0 C 48.3 33.9 42.5 35.7 37.4 35.0 C 37.2 27.0 37.7 18.9 36.8 11.0 C 36.5 9.5 36.6 7.7 35.2 6.8 C 31.6 4.8 27.4 6.0 23.6 6.8 C 23.2 18.0 24.6 29.1 23.9 40.2 C 22.4 33.7 23.7 26.6 19.9 20.8 C 19.4 15.8 19.3 10.6 19.6 5.5 Z" />
<path fill="#ffffff" stroke="#ffffff" stroke-width="0.09375" opacity="1.00" d=" M 23.6 6.8 C 27.4 6.0 31.6 4.8 35.2 6.8 C 36.6 7.7 36.5 9.5 36.8 11.0 C 37.7 18.9 37.2 27.0 37.4 35.0 C 42.5 35.7 48.3 33.9 52.9 37.0 C 52.0 40.0 51.5 44.0 48.1 45.2 C 43.3 47.0 38.0 46.6 33.0 46.2 C 29.2 45.9 24.5 44.5 23.9 40.2 C 24.6 29.1 23.2 18.0 23.6 6.8 Z" />
<path fill="#ffffff" stroke="#ffffff" stroke-width="0.09375" opacity="1.00" d=" M 57.8 9.8 C 63.2 5.4 71.5 4.4 77.8 7.2 C 84.4 10.6 85.1 18.7 85.9 25.3 C 86.1 31.7 86.9 38.0 87.0 44.4 C 84.2 47.6 78.7 48.5 75.2 45.8 C 73.4 43.9 72.7 41.4 71.6 39.1 C 70.6 39.1 69.6 39.2 68.5 39.2 C 68.1 41.2 67.8 43.2 67.0 45.1 C 63.5 48.4 56.8 47.9 54.4 43.5 C 53.1 40.5 53.5 37.1 53.7 33.9 C 55.8 26.0 55.8 17.7 57.8 9.8 M 69.3 19.0 C 68.8 22.9 68.6 26.9 68.7 30.9 C 69.6 30.9 71.4 30.9 72.2 30.9 C 72.4 27.1 72.1 23.3 71.5 19.5 C 70.9 19.4 69.8 19.1 69.3 19.0 Z" />
<path fill="#7880c6" stroke="#7880c6" stroke-width="0.09375" opacity="1.00" d=" M 69.3 19.0 C 69.8 19.1 70.9 19.4 71.5 19.5 C 72.1 23.3 72.4 27.1 72.2 30.9 C 71.4 30.9 69.6 30.9 68.7 30.9 C 68.6 26.9 68.8 22.9 69.3 19.0 Z" />
<path fill="#777fd1" stroke="#777fd1" stroke-width="0.09375" opacity="1.00" d=" M 19.9 20.8 C 23.7 26.6 22.4 33.7 23.9 40.2 C 24.5 44.5 29.2 45.9 33.0 46.2 C 38.0 46.6 43.3 47.0 48.1 45.2 C 51.5 44.0 52.0 40.0 52.9 37.0 C 53.2 36.0 53.5 34.9 53.7 33.9 C 53.5 37.1 53.1 40.5 54.4 43.5 C 56.8 47.9 63.5 48.4 67.0 45.1 C 67.8 43.2 68.1 41.2 68.5 39.2 C 69.6 39.2 70.6 39.1 71.6 39.1 C 72.7 41.4 73.4 43.9 75.2 45.8 C 78.7 48.5 84.2 47.6 87.0 44.4 C 86.9 38.0 86.1 31.7 85.9 25.3 C 87.5 26.2 88.9 27.5 89.9 29.1 C 90.7 33.3 90.1 37.8 91.1 42.0 C 92.6 46.5 87.7 50.0 83.9 50.9 C 79.3 52.4 74.6 50.6 71.0 47.9 C 67.7 49.3 64.6 51.2 61.0 51.4 C 57.7 51.4 54.7 49.8 51.9 48.2 C 45.9 51.3 38.8 50.8 32.2 50.4 C 27.5 49.6 21.4 47.8 20.5 42.3 C 20.0 35.1 19.4 28.0 19.9 20.8 Z" />
<path fill="#7a83de" stroke="#7a83de" stroke-width="0.09375" opacity="1.00" d=" M 2.6 64.2 C 2.8 61.9 4.3 59.0 7.0 59.2 C 15.0 59.1 23.0 59.2 31.0 59.2 C 33.8 59.0 36.3 60.4 39.0 60.8 C 42.0 60.0 44.9 58.8 48.0 58.7 C 50.9 58.8 53.6 60.0 56.0 61.5 C 61.6 59.4 67.7 58.6 73.6 59.6 C 76.8 60.2 79.1 62.7 81.1 65.2 C 83.3 62.7 85.6 59.9 89.0 59.2 C 96.5 56.8 105.7 62.9 105.6 71.0 C 105.6 81.5 106.6 92.0 106.4 102.6 C 103.4 109.4 93.7 109.3 88.1 105.7 C 83.5 109.3 77.1 108.4 72.2 105.8 C 67.7 108.9 61.2 109.0 57.1 105.1 C 53.3 107.6 48.7 108.7 44.3 107.7 C 40.5 107.1 37.6 103.6 37.4 99.8 C 37.0 92.7 37.4 85.5 37.2 78.4 C 35.7 79.1 32.5 78.7 32.8 81.1 C 33.4 87.4 33.4 93.7 33.3 100.1 C 33.5 103.9 29.8 106.5 26.4 107.3 C 22.9 108.2 18.7 108.7 15.6 106.4 C 12.9 104.5 12.1 101.1 11.7 98.1 C 11.3 91.9 11.7 85.7 11.4 79.5 C 9.3 77.9 6.2 77.7 4.5 75.5 C 1.8 72.4 2.2 68.0 2.6 64.2 M 58.2 65.1 C 58.8 74.7 58.6 84.4 58.5 94.0 C 58.4 97.1 58.5 100.7 61.1 102.9 C 64.6 105.4 70.9 103.7 71.4 99.0 C 72.2 91.6 70.9 84.3 70.3 77.0 C 72.5 84.5 72.0 92.5 74.2 100.0 C 76.1 105.8 85.7 105.2 87.0 99.3 C 88.1 91.9 88.3 84.4 89.7 77.0 C 89.7 84.3 89.0 91.7 89.7 99.0 C 90.4 104.9 99.7 105.5 102.3 100.9 C 102.7 92.3 101.7 83.6 101.8 75.0 C 101.6 71.8 102.0 68.0 99.4 65.6 C 95.6 61.8 88.6 62.0 85.4 66.4 C 81.7 71.7 83.6 78.8 80.6 84.3 C 78.6 77.8 80.6 69.1 74.7 64.3 C 69.5 62.3 63.4 63.1 58.2 65.1 M 6.7 63.7 C 6.7 66.9 5.6 70.5 7.7 73.2 C 9.6 75.5 12.9 75.1 15.6 75.6 C 15.7 83.7 15.3 91.8 16.1 99.9 C 16.9 105.4 24.2 105.2 27.9 102.9 C 29.7 102.0 29.2 99.7 29.4 98.1 C 29.4 90.6 29.1 83.1 29.2 75.6 C 31.6 75.4 34.1 75.4 36.4 74.4 C 39.2 72.1 39.1 67.0 36.0 64.9 C 33.7 63.3 30.7 63.6 28.0 63.5 C 20.9 63.6 13.8 63.3 6.7 63.7 M 41.0 65.1 C 40.7 70.4 40.6 75.7 41.1 81.0 C 41.6 87.6 40.8 94.2 41.5 100.8 C 41.9 104.2 46.2 104.9 49.0 104.4 C 51.4 104.2 54.8 103.0 54.4 100.0 C 54.6 90.7 54.2 81.3 54.4 72.0 C 54.3 69.4 54.8 66.2 52.3 64.6 C 48.9 62.4 44.5 63.8 41.0 65.1 Z" />
<path fill="#ffffff" stroke="#ffffff" stroke-width="0.09375" opacity="1.00" d=" M 58.2 65.1 C 63.4 63.1 69.5 62.3 74.7 64.3 C 80.6 69.1 78.6 77.8 80.6 84.3 C 83.6 78.8 81.7 71.7 85.4 66.4 C 88.6 62.0 95.6 61.8 99.4 65.6 C 102.0 68.0 101.6 71.8 101.8 75.0 C 101.7 83.6 102.7 92.3 102.3 100.9 C 99.7 105.5 90.4 104.9 89.7 99.0 C 89.0 91.7 89.7 84.3 89.7 77.0 C 88.3 84.4 88.1 91.9 87.0 99.3 C 85.7 105.2 76.1 105.8 74.2 100.0 C 72.0 92.5 72.5 84.5 70.3 77.0 C 70.9 84.3 72.2 91.6 71.4 99.0 C 70.9 103.7 64.6 105.4 61.1 102.9 C 58.5 100.7 58.4 97.1 58.5 94.0 C 58.6 84.4 58.8 74.7 58.2 65.1 Z" />
<path fill="#ffffff" stroke="#ffffff" stroke-width="0.09375" opacity="1.00" d=" M 6.7 63.7 C 13.8 63.3 20.9 63.6 28.0 63.5 C 30.7 63.6 33.7 63.3 36.0 64.9 C 39.1 67.0 39.2 72.1 36.4 74.4 C 34.1 75.4 31.6 75.4 29.2 75.6 C 29.1 83.1 29.4 90.6 29.4 98.1 C 29.2 99.7 29.7 102.0 27.9 102.9 C 24.2 105.2 16.9 105.4 16.1 99.9 C 15.3 91.8 15.7 83.7 15.6 75.6 C 12.9 75.1 9.6 75.5 7.7 73.2 C 5.6 70.5 6.7 66.9 6.7 63.7 Z" />
<path fill="#ffffff" stroke="#ffffff" stroke-width="0.09375" opacity="1.00" d=" M 41.0 65.1 C 44.5 63.8 48.9 62.4 52.3 64.6 C 54.8 66.2 54.3 69.4 54.4 72.0 C 54.2 81.3 54.6 90.7 54.4 100.0 C 54.8 103.0 51.4 104.2 49.0 104.4 C 46.2 104.9 41.9 104.2 41.5 100.8 C 40.8 94.2 41.6 87.6 41.1 81.0 C 40.6 75.7 40.7 70.4 41.0 65.1 Z" />
</svg>
