<?xml version="1.0" encoding="UTF-8" ?>
<!DOCTYPE svg PUBLIC "-//W3C//DTD SVG 1.1//EN" "http://www.w3.org/Graphics/SVG/1.1/DTD/svg11.dtd">
<svg width="332pt" height="160pt" viewBox="0 0 332 160" version="1.1" xmlns="http://www.w3.org/2000/svg">
<path fill="#f5fff4" stroke="#f5fff4" stroke-width="0.09375" opacity="1.00" d=" M 183.5 1.8 C 188.6 -0.1 194.5 0.2 199.2 2.8 C 203.2 5.4 203.1 10.8 202.7 15.0 C 202.1 19.6 197.4 22.6 193.0 22.7 C 188.9 22.9 184.1 23.1 180.9 20.0 C 177.8 17.3 178.0 12.8 178.3 9.0 C 178.5 5.9 180.4 2.8 183.5 1.8 Z" />
<path fill="#f5fff4" stroke="#f5fff4" stroke-width="0.09375" opacity="1.00" d=" M 123.2 10.5 C 124.2 7.6 123.7 3.2 127.0 1.7 C 132.0 1.6 137.0 1.6 142.0 1.7 C 143.7 1.7 145.1 3.3 145.1 5.0 C 145.3 12.4 145.1 19.9 145.2 27.3 C 150.0 27.5 154.9 27.2 159.8 27.4 C 161.6 27.3 162.4 29.4 162.4 30.9 C 162.4 35.6 162.5 40.3 162.3 45.0 C 161.9 46.2 161.3 47.7 159.8 47.5 C 154.9 47.7 150.0 47.5 145.1 47.6 C 145.3 60.4 145.1 73.2 145.2 86.0 C 145.0 90.6 148.4 95.1 153.0 96.0 C 156.0 97.0 158.9 95.6 161.9 95.8 C 163.0 96.5 164.2 97.6 164.2 99.0 C 164.2 103.6 164.4 108.3 164.1 112.9 C 163.2 116.0 159.6 115.8 157.0 116.3 C 148.1 117.1 137.8 116.6 130.8 110.2 C 124.0 104.2 122.0 94.7 121.8 86.0 C 121.8 73.2 121.7 60.4 121.8 47.7 C 118.4 47.5 114.9 47.8 111.5 47.5 C 109.2 45.7 109.8 42.5 109.7 40.0 C 109.9 35.9 109.1 31.6 110.7 27.6 C 114.4 27.3 118.1 27.4 121.8 27.3 C 121.7 21.7 121.5 16.0 123.2 10.5 Z" />
<path fill="#f5fff4" stroke="#f5fff4" stroke-width="0.09375" opacity="1.00" d=" M 0.0 8.4 C 8.3 8.5 17.0 10.2 23.8 15.2 C 29.4 19.2 32.4 26.2 32.4 33.0 C 32.3 57.7 32.4 82.3 32.4 107.0 C 32.5 112.3 33.0 117.8 35.6 122.4 C 37.7 126.0 41.9 127.7 45.9 127.6 C 57.9 127.8 69.8 127.4 81.8 127.7 C 81.9 137.4 81.9 147.0 81.6 156.6 C 69.4 156.8 57.2 156.6 45.0 156.7 C 34.1 156.7 22.6 154.8 13.5 148.5 C 6.3 143.7 2.0 135.5 1.4 127.0 C 0.6 89.5 0.7 52.0 0.0 14.5 L 0.0 8.4 Z" />
<path fill="#f5fff4" stroke="#f5fff4" stroke-width="0.09375" opacity="1.00" d=" M 48.3 28.3 C 57.8 25.1 68.0 25.1 78.0 25.2 C 87.7 25.3 97.8 29.2 104.0 37.0 C 108.8 43.2 110.5 51.3 110.5 59.0 C 110.5 75.0 110.5 91.0 110.5 107.0 C 111.0 109.6 107.9 110.5 106.0 111.2 C 97.9 113.8 89.4 114.7 81.0 115.5 C 70.6 115.8 59.1 115.9 50.1 109.8 C 43.2 105.0 40.6 96.1 41.1 88.0 C 40.7 78.7 44.2 68.5 52.8 63.9 C 62.9 58.2 74.9 61.2 85.9 59.8 C 85.8 55.7 85.4 50.8 81.8 48.2 C 76.9 44.7 70.6 45.4 65.0 45.5 C 59.9 45.5 55.0 47.3 50.0 47.6 C 48.4 46.2 48.5 44.0 48.0 42.1 C 47.5 38.4 46.5 34.8 46.2 31.1 C 46.0 29.8 47.0 28.5 48.3 28.3 M 64.4 85.2 C 63.9 88.7 64.4 93.2 67.9 95.0 C 72.6 97.1 78.0 96.7 82.9 95.6 C 84.6 95.3 86.3 94.5 87.2 92.9 C 87.6 88.1 87.2 83.3 87.3 78.5 C 82.5 78.5 77.7 78.2 72.9 78.8 C 69.4 79.6 65.3 81.4 64.4 85.2 Z" />
<path fill="#f5fff4" stroke="#f5fff4" stroke-width="0.09375" opacity="1.00" d=" M 222.3 33.3 C 229.5 30.2 237.3 28.9 245.1 27.7 C 250.3 27.4 255.8 27.1 260.9 28.5 C 266.0 29.8 270.6 32.7 274.9 35.7 C 281.8 29.9 291.0 27.0 300.0 27.5 C 308.7 27.5 318.8 29.0 324.4 36.6 C 330.9 45.6 331.6 57.3 331.9 68.0 C 332.0 95.7 331.9 123.4 331.9 151.0 C 332.1 152.8 330.7 154.7 328.8 154.5 C 323.2 154.6 317.6 154.6 312.1 154.5 C 310.1 154.9 308.5 152.9 308.7 151.1 C 308.6 120.7 308.7 90.3 308.6 60.0 C 308.6 56.0 307.6 51.3 303.6 49.5 C 297.5 46.2 290.1 48.0 284.7 51.9 C 287.1 58.3 286.8 65.2 287.2 72.0 C 287.2 85.3 287.2 98.7 287.2 112.1 C 287.3 114.0 286.5 117.0 284.0 116.6 C 278.3 116.7 272.7 116.7 267.0 116.6 C 265.0 117.0 263.7 114.8 263.8 113.0 C 263.7 95.4 263.8 77.7 263.8 60.0 C 263.7 56.0 263.1 51.1 259.1 49.1 C 253.6 46.4 247.6 48.3 242.2 50.0 C 242.0 71.0 242.2 92.0 242.1 113.0 C 242.2 114.8 241.0 117.0 239.0 116.6 C 233.1 116.7 227.1 116.8 221.2 116.6 C 219.0 116.5 218.7 113.8 218.8 112.1 C 218.8 87.0 218.7 62.0 218.8 37.0 C 218.7 35.0 220.8 34.1 222.3 33.3 Z" />
<path fill="#f5fff4" stroke="#f5fff4" stroke-width="0.09375" opacity="1.00" d=" M 181.5 29.8 C 187.3 29.6 193.0 29.7 198.8 29.7 C 200.9 29.7 202.3 31.9 202.1 33.9 C 202.1 60.3 202.1 86.7 202.1 113.1 C 202.1 114.7 201.7 117.4 199.6 117.5 C 193.8 117.7 187.9 117.6 182.1 117.6 C 180.0 117.9 178.7 115.8 178.8 114.0 C 178.7 87.3 178.8 60.6 178.8 33.9 C 178.4 32.1 179.6 30.1 181.5 29.8 Z" />
<path fill="#f1f9ef" stroke="#f1f9ef" stroke-width="0.09375" opacity="0.98" d=" M 86.9 129.9 C 87.4 129.9 88.3 129.9 88.8 130.0 C 89.1 136.5 88.6 143.1 89.1 149.6 C 92.6 149.6 96.1 149.5 99.6 149.7 C 99.4 150.2 99.0 151.1 98.8 151.6 C 94.8 151.8 90.8 151.6 86.9 151.7 C 86.7 144.4 86.6 137.1 86.9 129.9 Z" />
<path fill="#f5fff4" stroke="#f5fff4" stroke-width="0.09375" opacity="1.00" d=" M 155.2 129.8 C 159.1 129.8 163.0 129.6 166.8 129.8 C 167.1 130.2 167.7 131.2 168.0 131.6 C 164.4 131.9 160.8 131.7 157.3 131.8 C 157.3 134.5 157.2 137.1 157.2 139.7 C 160.0 139.8 162.8 139.5 165.5 140.0 L 165.9 141.6 C 163.1 141.8 160.2 141.8 157.3 141.7 C 157.2 144.3 157.2 147.0 157.3 149.6 C 160.6 149.6 163.9 149.6 167.2 149.5 C 167.3 150.1 167.6 151.1 167.8 151.6 C 163.6 151.7 159.4 151.6 155.2 151.6 C 155.1 144.3 155.1 137.1 155.2 129.8 Z" />
<path fill="#fefffe" stroke="#fefffe" stroke-width="0.09375" opacity="1.00" d=" M 192.7 129.7 C 195.6 129.7 194.3 132.8 194.6 134.6 C 195.9 134.6 197.2 134.7 198.6 134.7 C 198.6 135.2 198.6 136.1 198.7 136.6 C 197.3 136.6 196.0 136.7 194.6 136.7 C 194.6 140.5 194.2 144.3 194.8 148.0 C 195.5 149.7 197.2 149.7 198.7 149.9 C 198.7 150.4 198.8 151.3 198.8 151.8 C 196.5 151.8 193.6 152.0 192.8 149.3 C 191.9 145.2 192.6 140.9 192.4 136.8 C 190.9 136.7 189.4 136.6 187.9 136.4 C 188.7 134.6 190.6 134.6 192.3 134.5 C 192.4 132.9 192.5 131.3 192.7 129.7 Z" />
<path fill="#fafff9" stroke="#fafff9" stroke-width="0.09375" opacity="1.00" d=" M 234.4 134.9 C 234.7 133.0 233.3 129.4 236.3 129.4 C 236.7 136.6 236.6 143.8 236.4 151.0 C 233.3 152.0 229.7 152.0 226.4 151.5 C 223.4 149.8 222.4 146.2 222.6 143.0 C 222.4 139.7 223.7 135.9 227.1 134.8 C 229.5 134.2 232.0 134.7 234.4 134.9 M 226.0 138.0 C 224.2 140.8 224.3 144.6 225.5 147.6 C 227.2 150.9 231.4 149.5 234.4 149.4 C 234.4 145.4 234.4 141.4 234.5 137.4 C 231.7 136.6 228.2 135.6 226.0 138.0 Z" />
<path fill="#f1f9ef" stroke="#f1f9ef" stroke-width="0.09375" opacity="0.98" d=" M 281.1 134.6 C 281.5 132.7 280.6 129.7 283.4 129.5 C 283.5 131.2 283.5 132.9 283.5 134.5 C 285.3 134.6 287.3 134.4 288.0 136.4 C 286.5 136.6 285.0 136.8 283.5 137.0 C 283.6 140.5 283.3 144.0 283.7 147.5 C 284.0 149.5 286.0 149.8 287.7 149.9 C 287.7 150.4 287.8 151.4 287.8 151.9 C 285.5 151.8 282.6 152.0 281.7 149.3 C 280.8 145.2 281.5 141.0 281.2 136.8 C 279.9 136.7 278.6 136.7 277.3 136.6 C 277.4 136.1 277.4 135.2 277.4 134.7 C 278.7 134.7 279.9 134.6 281.1 134.6 Z" />
<path fill="#fefefe" stroke="#fefefe" stroke-width="0.09375" opacity="1.00" d=" M 300.6 129.4 L 302.1 129.8 C 302.8 137.0 302.5 144.3 302.2 151.5 L 300.5 151.9 C 300.3 144.4 300.1 136.9 300.6 129.4 Z" />
<path fill="#fafff9" stroke="#fafff9" stroke-width="0.09375" opacity="1.00" d=" M 104.4 131.3 C 107.3 128.6 107.4 135.8 104.3 133.1 C 104.3 132.6 104.4 131.8 104.4 131.3 Z" />
<path fill="#f1f9ef" stroke="#f1f9ef" stroke-width="0.09375" opacity="0.98" d=" M 292.4 131.3 C 293.0 131.3 294.2 131.1 294.8 131.1 C 294.5 137.8 295.2 144.5 294.9 151.3 L 293.9 151.9 L 292.9 151.3 C 292.9 145.6 292.1 139.7 293.5 134.0 C 293.2 133.1 292.8 132.2 292.4 131.3 Z" />
<path fill="#fafff9" stroke="#fafff9" stroke-width="0.09375" opacity="1.00" d=" M 173.9 135.9 C 176.2 133.6 179.7 134.8 182.6 134.6 C 182.7 135.1 182.8 136.2 182.8 136.7 C 180.0 136.6 174.0 135.5 174.7 139.9 C 177.3 142.9 182.4 142.0 184.7 145.4 C 186.1 147.5 184.6 150.4 182.5 151.4 C 179.8 152.0 177.0 151.9 174.3 151.4 C 173.0 151.5 172.5 150.2 172.0 149.2 C 175.5 149.5 179.0 150.0 182.5 149.4 C 182.6 148.2 183.4 146.7 182.3 145.7 C 179.7 144.0 176.4 144.0 173.9 142.1 C 171.8 140.7 171.7 137.3 173.9 135.9 Z" />
<path fill="#fafff9" stroke="#fafff9" stroke-width="0.09375" opacity="1.00" d=" M 203.6 140.0 C 203.8 137.9 202.7 134.8 205.5 134.1 C 206.0 138.4 205.4 142.7 205.9 146.9 C 207.4 150.9 212.2 149.6 215.5 149.5 C 215.6 144.5 215.4 139.4 215.6 134.3 C 216.1 134.5 217.1 135.0 217.6 135.2 C 217.7 140.6 217.7 146.0 217.5 151.4 C 213.9 151.6 210.1 152.2 206.6 151.3 C 202.9 148.8 203.7 143.8 203.6 140.0 Z" />
<path fill="#fefffe" stroke="#fefffe" stroke-width="0.09375" opacity="1.00" d=" M 104.4 135.2 C 104.9 135.0 105.9 134.6 106.4 134.4 C 106.4 140.0 106.9 145.7 106.2 151.3 L 104.8 152.2 C 104.0 146.6 104.5 140.9 104.4 135.2 Z" />
<path fill="#e6e9e6" stroke="#e6e9e6" stroke-width="0.09375" opacity="0.91" d=" M 112.5 147.4 C 110.5 143.5 110.5 136.8 115.1 134.7 C 118.4 134.5 122.6 133.7 125.3 136.0 C 125.4 141.4 125.4 146.7 125.3 152.0 C 125.2 155.3 121.9 157.5 118.9 157.4 C 116.4 157.4 112.9 158.0 112.4 154.6 C 115.6 154.8 119.2 156.2 122.1 154.1 C 123.2 152.7 123.1 150.9 123.2 149.3 C 119.7 150.1 114.8 151.2 112.5 147.4 M 114.0 138.9 C 113.3 141.6 112.9 145.1 115.2 147.2 C 117.6 148.4 120.5 147.5 123.1 147.3 C 123.2 143.8 123.2 140.4 123.1 136.9 C 120.0 136.8 115.7 135.5 114.0 138.9 Z" />
<path fill="#fafff9" stroke="#fafff9" stroke-width="0.09375" opacity="1.00" d=" M 131.8 134.7 C 135.4 134.3 140.3 133.8 142.4 137.6 C 143.4 141.5 142.9 145.7 142.8 149.7 C 140.6 152.3 136.8 151.9 133.8 151.6 C 129.7 151.1 129.1 145.1 132.0 142.8 C 134.8 141.4 138.0 141.8 141.1 141.7 C 140.6 140.3 140.8 138.5 139.4 137.6 C 137.2 136.0 134.5 136.7 132.0 136.7 C 131.9 136.2 131.8 135.2 131.8 134.7 M 133.5 144.6 C 131.7 145.5 132.7 147.7 132.7 149.3 C 135.2 149.8 137.9 149.8 140.5 149.4 C 140.7 147.6 140.8 145.7 140.8 143.9 C 138.4 143.8 135.8 143.5 133.5 144.6 Z" />
<path fill="#fafff9" stroke="#fafff9" stroke-width="0.09375" opacity="1.00" d=" M 242.9 136.7 C 242.6 133.6 246.1 134.7 248.0 134.5 C 251.5 134.3 254.6 137.5 254.3 140.9 C 254.0 144.1 255.1 147.6 253.5 150.4 C 251.1 152.2 247.9 151.8 245.2 151.6 C 241.1 151.2 240.2 145.3 243.1 142.9 C 245.9 141.4 249.2 141.8 252.3 141.7 C 251.8 140.3 251.9 138.3 250.4 137.5 C 248.2 135.9 245.4 136.8 242.9 136.7 M 243.6 147.0 C 243.7 151.0 248.9 149.5 251.5 149.4 C 252.0 147.6 252.2 145.7 252.2 143.8 C 249.3 144.0 243.7 142.8 243.6 147.0 Z" />
<path fill="#ffffff" stroke="#ffffff" stroke-width="0.09375" opacity="1.00" d=" M 259.4 135.3 C 263.8 134.4 270.5 132.9 272.8 138.1 C 274.1 142.4 273.1 147.1 273.4 151.6 C 272.9 151.6 271.9 151.7 271.3 151.7 C 271.0 147.6 271.8 143.3 270.9 139.3 C 269.4 135.5 264.8 136.6 261.6 136.7 C 261.4 141.7 261.6 146.7 261.5 151.6 C 261.0 151.6 260.0 151.7 259.4 151.7 C 259.4 146.2 259.4 140.8 259.4 135.3 Z" />
</svg>
